<svg width="82" height="90" viewBox="0 0 82 90" fill="none" xmlns="http://www.w3.org/2000/svg">
<path d="M24.5737 50.9804C24.8337 51.936 27.6655 61.7522 37.6644 65.4412C44.7824 68.0692 52.856 66.5866 58.7513 61.6047" stroke="url(#paint0_linear_12055_4878)" stroke-width="3" stroke-miterlimit="10" stroke-linecap="round"/>
<path d="M67.2326 65.0969C65.7851 66.9519 61.014 72.5943 52.4767 74.878C44.0798 77.1265 37.2288 74.7375 35.0225 73.8662" stroke="url(#paint1_linear_12055_4878)" stroke-width="3" stroke-miterlimit="10" stroke-linecap="round"/>
<path d="M79.993 20.5128C70.7459 7.33786 55.0203 0.325263 39.2384 2.34191C22.1988 4.51315 8.34926 16.7887 3.71167 32.4089C-2.28909 52.6176 7.85739 75.9882 28.3612 84.4413C46.518 91.9317 68.0547 85.7553 80 69.3129" stroke="url(#paint2_linear_12055_4878)" stroke-width="3" stroke-miterlimit="10" stroke-linecap="round"/>
<path d="M66.7548 23.2884C54.4863 11.1252 35.2895 10.802 23.829 21.0328C10.9984 32.4792 10.5205 54.7959 24.9884 67.8584" stroke="url(#paint3_linear_12055_4878)" stroke-width="3" stroke-miterlimit="10" stroke-linecap="round"/>
<path d="M47.8811 32.8165C42.3301 31.7484 36.8493 34.2007 34.411 38.6345C31.3896 44.1364 33.4976 51.8657 39.8075 55.4985" stroke="url(#paint4_linear_12055_4878)" stroke-width="3" stroke-miterlimit="10" stroke-linecap="round"/>
<path d="M28.9514 31.4252C30.0054 29.9847 33.5539 25.5017 40.0605 23.6537C47.5931 21.5176 53.7485 24.4407 55.1608 25.1574" stroke="url(#paint5_linear_12055_4878)" stroke-width="3" stroke-miterlimit="10" stroke-linecap="round"/>
<defs>
<linearGradient id="paint0_linear_12055_4878" x1="41.9999" y1="57" x2="41.9999" y2="79.5" gradientUnits="userSpaceOnUse">
<stop stop-color="#B420F8"/>
<stop offset="0.966406" stop-color="#7620F8"/>
</linearGradient>
<linearGradient id="paint1_linear_12055_4878" x1="51" y1="71.5" x2="53.5" y2="85.5" gradientUnits="userSpaceOnUse">
<stop stop-color="#B420F8"/>
<stop offset="0.966406" stop-color="#7620F8"/>
</linearGradient>
<linearGradient id="paint2_linear_12055_4878" x1="41" y1="4.5" x2="41" y2="106.5" gradientUnits="userSpaceOnUse">
<stop stop-color="#B420F8"/>
<stop offset="0.966406" stop-color="#7620F8"/>
</linearGradient>
<linearGradient id="paint3_linear_12055_4878" x1="40.4625" y1="13.735" x2="40.0001" y2="101" gradientUnits="userSpaceOnUse">
<stop stop-color="#B420F8"/>
<stop offset="0.966406" stop-color="#7620F8"/>
</linearGradient>
<linearGradient id="paint4_linear_12055_4878" x1="40.4663" y1="32.5678" x2="40" y2="66" gradientUnits="userSpaceOnUse">
<stop stop-color="#B420F8"/>
<stop offset="0.966406" stop-color="#7620F8"/>
</linearGradient>
<linearGradient id="paint5_linear_12055_4878" x1="42" y1="21" x2="43.5" y2="53.5" gradientUnits="userSpaceOnUse">
<stop stop-color="#B420F8"/>
<stop offset="0.966406" stop-color="#7620F8"/>
</linearGradient>
</defs>
</svg>
